<?xml version="1.0" encoding="UTF-8"?>
<svg version="1.1" xmlns="http://www.w3.org/2000/svg" width="1074" height="312">
<path d="M0 0 C8.08076036 1.82468782 12.60219939 10.45733251 17.3125 16.8125 C35.02504339 40.69389471 59.55566757 57.06887904 89.09765625 62.14453125 C119.39336726 66.50435224 150.77975883 60.8376758 175.71386719 42.52441406 C179.60016328 39.48324332 183.24854005 36.21940196 186.875 32.875 C187.57625 32.2665625 188.2775 31.658125 189 31.03125 C195.32021976 25.23771522 200.00726136 17.99206498 204.921875 11.01953125 C211.13086819 2.24706591 211.13086819 2.24706591 213.875 0.875 C220.15396996 0.41834764 220.15396996 0.41834764 222.75 2.0625 C226.08685229 7.4385398 225.23943193 14.59250527 224.28125 20.59375 C220.63227504 35.81878345 214.45172412 48.21162614 203.875 59.875 C203.1428125 60.72578125 202.410625 61.5765625 201.65625 62.453125 C197.17245005 67.60002213 192.41232989 72.21761457 187.28515625 76.71875 C185.02198755 78.74349736 182.8779082 80.83461396 180.75 83 C176.48920205 87.32080919 172.02965132 91.46478743 167.203125 95.15234375 C162.18712478 99.08154392 158.54842145 103.93240429 154.78198242 109.02563477 C150.59989313 114.58393634 150.59989313 114.58393634 146.875 115.875 C146.1325 115.070625 145.39 114.26625 144.625 113.4375 C142.12195171 111.10511409 141.1569045 110.23965606 137.875 109.875 C138.205 110.37 138.535 110.865 138.875 111.375 C140.31874945 114.98437363 139.99840377 117.98778121 139.875 121.875 C139.875 122.865 139.875 123.855 139.875 124.875 C140.926875 124.111875 141.97875 123.34875 143.0625 122.5625 C145.12837199 121.06373013 147.14090858 119.72814877 149.37890625 118.4921875 C152.13477494 116.70669511 153.65856143 114.9302163 155.625 112.3125 C161.95040236 104.16794997 168.25438212 96.65339781 176.875 90.875 C190.85321414 103.31584711 202.76900386 116.36792211 211.3125 133.1875 C211.64258057 133.83283691 211.97266113 134.47817383 212.31274414 135.14306641 C215.75199119 142.17269665 217.15755302 148.63844644 217.125 156.5 C217.13273437 158.37558594 217.13273437 158.37558594 217.140625 160.2890625 C216.87938699 163.81577562 216.14816404 166.59104514 214.875 169.875 C208.25583002 169.08736421 201.6927577 168.0692107 195.1171875 166.98046875 C184.39360807 165.24577208 173.8448796 164.66246301 162.9909668 164.63476562 C160.70909712 164.62509156 158.42814283 164.59398812 156.14648438 164.5625 C142.68693447 164.46469805 130.62920327 166.16096324 118.265625 171.88671875 C115.875 172.875 115.875 172.875 112.875 172.875 C111.01131069 162.75782946 110.55501142 152.57858963 110.41064453 142.3125 C110.38690995 140.85591213 110.35275302 139.39945627 110.30810547 137.94335938 C110.24798839 135.86245626 110.22824583 133.78480122 110.21875 131.703125 C110.19071289 129.8763623 110.19071289 129.8763623 110.16210938 128.01269531 C110.875 124.875 110.875 124.875 113.82617188 122.59277344 C114.83228516 122.0259082 115.83839844 121.45904297 116.875 120.875 C118.80276635 117.77381065 118.87695338 115.9863427 118.8125 112.3125 C118.11856447 108.81491361 118.11856447 108.81491361 115.8125 106.4375 C112.00596484 104.41274726 109.09503189 103.92208957 104.875 104.875 C101.6883497 106.6448823 101.6883497 106.6448823 99.875 109.875 C99.24613917 113.00260874 99.2322738 115.74901348 99.875 118.875 C102.07331364 121.90715675 103.32463194 122.69154398 106.875 123.875 C106.89997151 128.80053348 106.91798678 133.726029 106.92993164 138.65161133 C106.93491846 140.32251631 106.94171031 141.99341702 106.95043945 143.66430664 C107.07666667 168.47166667 107.07666667 168.47166667 104.875 172.875 C101.04703325 172.47205613 97.87686775 171.51400883 94.375 170 C82.43180514 165.10912145 70.64066582 164.3678181 57.9375 164.5 C56.79754074 164.50498505 56.79754074 164.50498505 55.634552 164.5100708 C39.8500141 164.59071282 24.54309595 166.16208172 9.10375977 169.49462891 C6.875 169.875 6.875 169.875 2.875 169.875 C-1.64189866 154.63046702 2.36083551 141.43187539 9.63671875 127.7734375 C16.46511722 115.54034518 29.61014444 96.59826352 42.875 90.875 C50.58628353 98.28233513 57.9650384 105.59850891 64.05786133 114.43017578 C67.19054964 118.74381546 69.79896554 119.6524368 74.875 120.875 C75.865 122.36 75.865 122.36 76.875 123.875 C78.36 124.37 78.36 124.37 79.875 124.875 C79.215 123.885 78.555 122.895 77.875 121.875 C77.25952181 115.61763838 77.9651705 112.76228687 81.875 107.875 C81.27171875 108.28492188 80.6684375 108.69484375 80.046875 109.1171875 C79.24765625 109.65601563 78.4484375 110.19484375 77.625 110.75 C76.83609375 111.28367187 76.0471875 111.81734375 75.234375 112.3671875 C73.15665947 113.69499908 71.08616493 114.79389537 68.875 115.875 C68.52832275 115.43744385 68.18164551 114.9998877 67.82446289 114.54907227 C59.61755126 104.22564846 51.31325148 94.62414948 41.29296875 86.00390625 C35.97750162 81.32389077 30.83363649 76.45512876 25.69091797 71.58691406 C24.08690016 70.0747639 22.46923665 68.57916782 20.84765625 67.0859375 C7.70467219 54.60293112 -6.01462319 35.66137517 -7.125 16.875 C-7.06928079 1.97939862 -7.06928079 1.97939862 0 0 Z " fill="#FEFEFE" transform="translate(25.125,132.125)"/>
<path d="M0 0 C14.91962938 14.39114115 28.4387212 36.41409022 29.02734375 57.81640625 C29.00994141 59.67845703 29.00994141 59.67845703 28.9921875 61.578125 C28.98316406 62.83238281 28.97414062 64.08664063 28.96484375 65.37890625 C28.94744141 66.80783203 28.94744141 66.80783203 28.9296875 68.265625 C27.9396875 68.595625 26.9496875 68.925625 25.9296875 69.265625 C25.64996094 68.0796875 25.37023437 66.89375 25.08203125 65.671875 C19.92447196 44.54081863 11.23097931 25.82706647 -3.0703125 9.265625 C-3.83214844 9.73613281 -4.59398437 10.20664063 -5.37890625 10.69140625 C-11.51257628 14.3899863 -17.17590419 17.31220931 -24.0703125 19.265625 C-23.7403125 20.915625 -23.4103125 22.565625 -23.0703125 24.265625 C-28.3375602 23.33949635 -32.91728853 21.4047431 -37.8203125 19.328125 C-38.69558594 18.96783203 -39.57085937 18.60753906 -40.47265625 18.23632812 C-41.30410156 17.88634766 -42.13554687 17.53636719 -42.9921875 17.17578125 C-43.75112305 16.85746338 -44.51005859 16.53914551 -45.29199219 16.21118164 C-47.0703125 15.265625 -47.0703125 15.265625 -48.0703125 13.265625 C-43.1203125 12.770625 -43.1203125 12.770625 -38.0703125 12.265625 C-44.28459161 4.33282919 -50.86153175 -2.70809503 -58.0703125 -9.734375 C-58.7303125 -3.464375 -59.3903125 2.805625 -60.0703125 9.265625 C-62.7103125 8.935625 -65.3503125 8.605625 -68.0703125 8.265625 C-69.0603125 8.265625 -70.0503125 8.265625 -71.0703125 8.265625 C-71.4003125 1.995625 -71.7303125 -4.274375 -72.0703125 -10.734375 C-83.23788458 0.18025291 -83.23788458 0.18025291 -93.0703125 12.265625 C-90.1003125 12.595625 -87.1303125 12.925625 -84.0703125 13.265625 C-84.0703125 13.925625 -84.0703125 14.585625 -84.0703125 15.265625 C-87.69298544 16.7712901 -91.31881799 18.26919046 -94.9453125 19.765625 C-95.97785156 20.19488281 -97.01039062 20.62414062 -98.07421875 21.06640625 C-99.06035156 21.47246094 -100.04648438 21.87851563 -101.0625 22.296875 C-101.97370605 22.67392578 -102.88491211 23.05097656 -103.82373047 23.43945312 C-106.0703125 24.265625 -106.0703125 24.265625 -108.0703125 24.265625 C-107.7403125 22.615625 -107.4103125 20.965625 -107.0703125 19.265625 C-107.7715625 19.03488281 -108.4728125 18.80414063 -109.1953125 18.56640625 C-114.77460846 16.64852327 -119.5535086 14.62897301 -124.31640625 11.12109375 C-126.03477049 10.12039651 -126.03477049 10.12039651 -128.00390625 10.2890625 C-140.3075556 16.10364159 -149.74548766 40.09938709 -154.04296875 52.07421875 C-155.87430617 57.76320229 -157.52120856 63.49326563 -159.0703125 69.265625 C-159.7303125 69.265625 -160.3903125 69.265625 -161.0703125 69.265625 C-162.14533306 46.54088486 -154.67721357 26.63328057 -140.0703125 9.265625 C-139.36132812 8.39421875 -138.65234375 7.5228125 -137.921875 6.625 C-121.71248668 -12.45175305 -97.90959663 -22.1997428 -73.3828125 -24.421875 C-46.04196115 -26.03016037 -20.43510718 -18.57256671 0 0 Z M-41.0703125 -9.734375 C-37.30309398 -4.02145022 -33.44602735 1.61643783 -29.48828125 7.19921875 C-28.0703125 9.265625 -28.0703125 9.265625 -27.0703125 11.265625 C-20.66890315 10.80006796 -15.80261421 9.11850664 -10.0703125 6.265625 C-11.10767651 2.87336898 -12.27485778 2.14198016 -15.37890625 0.265625 C-16.74825733 -0.41520499 -18.12505479 -1.08120351 -19.5078125 -1.734375 C-20.22340332 -2.08177734 -20.93899414 -2.42917969 -21.67626953 -2.78710938 C-31.00645594 -7.65540441 -31.00645594 -7.65540441 -41.0703125 -9.734375 Z M-91.0703125 -9.734375 C-101.50070456 -6.08103561 -111.60974872 -2.53827143 -121.0703125 3.265625 C-121.0703125 4.255625 -121.0703125 5.245625 -121.0703125 6.265625 C-119.17939514 7.11005381 -117.28233735 7.94074087 -115.3828125 8.765625 C-113.79919922 9.46171875 -113.79919922 9.46171875 -112.18359375 10.171875 C-108.18636048 11.57975242 -108.18636048 11.57975242 -104.0703125 11.265625 C-102.16992191 9.1225005 -102.16992191 9.1225005 -100.6953125 6.265625 C-97.62553795 1.05038164 -94.21341969 -3.33940719 -90.0703125 -7.734375 C-90.4003125 -8.394375 -90.7303125 -9.054375 -91.0703125 -9.734375 Z " fill="#FEFEFE" transform="translate(200.0703125,72.734375)"/>
<path d="M0 0 C6.93 0 13.86 0 21 0 C26.99993212 6.04375924 26.99993212 6.04375924 28.28271484 8.89233398 C28.71979767 9.82153152 28.71979767 9.82153152 29.16571045 10.76950073 C29.461651 11.40244049 29.75759155 12.03538025 30.0625 12.6875 C30.73646705 13.96907685 31.41838469 15.24650187 32.10791016 16.51977539 C33.48501128 19.08726958 34.81721361 21.6707168 36.11474609 24.27929688 C38.7951161 29.63555552 41.85233164 34.76959165 44.875 39.9375 C46.19917135 42.27100631 47.51510171 44.60891059 48.82763672 46.94897461 C50.18289937 49.31997868 51.59490869 51.65818114 53 54 C53 36.18 53 18.36 53 0 C57.95 0 62.9 0 68 0 C68 25.08 68 50.16 68 76 C61.07 76 54.14 76 47 76 C46.319375 74.72511719 45.63875 73.45023437 44.9375 72.13671875 C36.70795969 56.83309155 27.94060827 41.89472169 19 27 C18.01 25.35 17.02 23.7 16 22 C15.67 39.82 15.34 57.64 15 76 C10.05 76 5.1 76 0 76 C0 50.92 0 25.84 0 0 Z " fill="#FEFEFE" transform="translate(529,118)"/>
<path d="M0 0 C43.44723618 0 43.44723618 0 54 10 C61.48686556 17.48686556 63.58285102 26.14096594 64.03125 36.4765625 C63.93324187 47.52697901 61.40595802 57.50267801 53.8125 65.8125 C39.07780694 79.30604181 18.75535808 76 0 76 C0 50.92 0 25.84 0 0 Z M16 14 C16 29.84 16 45.68 16 62 C29.48128427 62.32357071 29.48128427 62.32357071 40.9375 56.6875 C46.5566463 49.36558209 47.50456726 42.07845874 46.75 32.98828125 C45.66805075 25.90730983 43.82988347 21.18136851 38 16.6875 C30.54314947 12.49302157 25.56556113 14 16 14 Z " fill="#FEFEFE" transform="translate(894,118)"/>
<path d="M0 0 C36.94594595 0 36.94594595 0 46.5 6.3125 C52.10921827 12.34240964 52.55966125 17.8113065 52.34765625 25.83984375 C51.68338119 31.87802938 49.43133828 35.96563147 44.9375 40 C42 42 42 42 39 42 C39.95422852 43.43835205 39.95422852 43.43835205 40.92773438 44.90576172 C43.28049869 48.45480198 45.62724527 52.00778648 47.97216797 55.56201172 C48.98907651 57.1015118 50.00762703 58.63992855 51.02783203 60.17724609 C52.49161016 62.38358223 53.94949288 64.59371141 55.40625 66.8046875 C55.86559937 67.49432587 56.32494873 68.18396423 56.79821777 68.89450073 C60 73.77225659 60 73.77225659 60 76 C54.02564518 76.9371537 47.8704664 77.87335989 42 76 C37.04781057 72.03824845 34.59423605 65.63029084 32 60 C30.85718145 57.65775822 29.66446327 55.36375011 28.4375 53.0625 C27.98246094 52.10472656 27.52742188 51.14695313 27.05859375 50.16015625 C24.45309256 46.96235838 24.45309256 46.96235838 16 47 C16 56.57 16 66.14 16 76 C10.72 76 5.44 76 0 76 C0 50.92 0 25.84 0 0 Z M16 13 C16 19.6 16 26.2 16 33 C18.206875 33.0825 20.41375 33.165 22.6875 33.25 C23.92886719 33.29640625 25.17023438 33.3428125 26.44921875 33.390625 C30.5696687 32.93733018 32.10787892 31.89748679 35 29 C36.55024464 25.89951072 36.28992015 23.42105782 36 20 C33.86320715 16.61060444 32.8225233 15.27417443 29 14 C26.77425665 13.77548542 24.54418481 13.59217122 22.3125 13.4375 C20.229375 13.293125 18.14625 13.14875 16 13 Z " fill="#FEFEFE" transform="translate(463,118)"/>
<path d="M0 0 C39.31092437 0 39.31092437 0 47.52734375 7.20703125 C51.35929917 11.87246239 52.41423458 16.03634387 52.375 22 C52.38660156 23.7634375 52.38660156 23.7634375 52.3984375 25.5625 C51.66669334 31.8755869 48.75562988 35.92374582 44 40 C42.34983398 40.7065227 40.68466585 41.38022327 39 42 C39.66644531 42.99443115 40.33289063 43.9888623 41.01953125 45.01342773 C43.48180915 48.68880087 45.9410741 52.36618144 48.39941406 56.04418945 C49.46564418 57.63849296 50.53270047 59.23224425 51.60058594 60.82543945 C53.13171308 63.11005727 54.65989832 65.39661764 56.1875 67.68359375 C56.90933472 68.7586039 56.90933472 68.7586039 57.64575195 69.85533142 C61 74.88612829 61 74.88612829 61 76 C54.56706009 77.77947405 48.19515474 79.11310263 42 76 C37.26351391 70.66035872 34.02296899 64.41744463 30.87329102 58.04785156 C30.54532028 57.40688034 30.21734955 56.76590912 29.87944031 56.10551453 C28.97685745 54.31616935 28.1272024 52.50041439 27.28076172 50.68383789 C24.60609212 46.91477613 24.60609212 46.91477613 16 47 C16 56.57 16 66.14 16 76 C10.72 76 5.44 76 0 76 C0 50.92 0 25.84 0 0 Z M17 13 C15.79504091 13.98407311 15.79504091 13.98407311 15.88647461 15.85766602 C15.89171143 16.64842529 15.89694824 17.43918457 15.90234375 18.25390625 C15.90556641 19.10791016 15.90878906 19.96191406 15.91210938 20.84179688 C15.92048828 21.73962891 15.92886719 22.63746094 15.9375 23.5625 C15.94201172 24.46419922 15.94652344 25.36589844 15.95117188 26.29492188 C15.96299775 28.53001314 15.9794778 30.76497437 16 33 C21.61911555 34.4073284 26.50440784 33.69940619 32 32 C35.38821348 29.24215181 35.88529601 27.8029279 36.5 23.5 C35.92072788 19.44509518 34.91261088 17.82939343 32 15 C28.86706445 13.95568815 26.16022297 13.652067 22.875 13.375 C21.79992187 13.27960938 20.72484375 13.18421875 19.6171875 13.0859375 C18.75351562 13.05757812 17.88984375 13.02921875 17 13 Z " fill="#FEFEFE" transform="translate(686,118)"/>
<path d="M0 0 C7.20183623 4.61750384 11.65255187 11.27549106 13.61328125 19.60546875 C14.93225592 27.77245331 13.13873993 34.96015791 9.3125 42.1875 C4.36877019 48.20014436 -1.12703347 53.56154608 -9 55 C-19.95300649 56.03697103 -27.61148554 54.66699185 -36.25 47.875 C-41.8144198 42.732632 -45.45087199 35.52296059 -46.203125 27.95703125 C-46.40166078 18.87401941 -43.77399146 11.21869203 -37.57421875 4.44140625 C-26.9417343 -5.73431276 -12.71612607 -6.41517139 0 0 Z " fill="#FEFEFE" transform="translate(150,131)"/>
<path d="M0 0 C6.6 0 13.2 0 20 0 C22.95528077 7.22756631 25.62593445 14.50723031 28.15234375 21.89453125 C28.5343544 23.00374435 28.91636505 24.11295746 29.30995178 25.25578308 C30.52148362 28.77388604 31.7298733 32.29305481 32.9375 35.8125 C34.52723767 40.44494764 36.11912732 45.07663947 37.71484375 49.70703125 C38.09264984 50.80387238 38.47045593 51.9007135 38.85971069 53.03079224 C41.17220697 59.7096689 43.57888772 66.3266228 46.22485352 72.8815918 C47 75 47 75 47 77 C41.06 77 35.12 77 29 77 C28.175 74.586875 27.35 72.17375 26.5 69.6875 C26.23896484 68.93170654 25.97792969 68.17591309 25.70898438 67.3972168 C24.72282302 64.47512677 24 62.10385594 24 59 C15.09 59 6.18 59 -3 59 C-3.99 62.63 -4.98 66.26 -6 70 C-6.66 72.31 -7.32 74.62 -8 77 C-13.94 77 -19.88 77 -26 77 C-23.74960175 67.99840699 -23.74960175 67.99840699 -22.43115234 64.12646484 C-22.13679291 63.25710297 -21.84243347 62.38774109 -21.53915405 61.49203491 C-21.22459259 60.57427277 -20.91003113 59.65651062 -20.5859375 58.7109375 C-20.25260406 57.73121979 -19.91927063 56.75150208 -19.57583618 55.74209595 C-18.86966379 53.66900301 -18.16189883 51.59645195 -17.45263672 49.52441406 C-16.39530022 46.4343278 -15.34370916 43.34233447 -14.29296875 40.25 C-9.69977534 26.76936112 -4.9181722 13.36535155 0 0 Z M10 14 C8.7146509 18.09230237 7.43299892 22.18573834 6.15478516 26.28027344 C5.71928126 27.67349619 5.28276237 29.06640208 4.84521484 30.45898438 C4.21706337 32.45881357 3.59255136 34.45974777 2.96875 36.4609375 C2.59169922 37.66540527 2.21464844 38.86987305 1.82617188 40.11083984 C0.90835476 42.81966026 0.90835476 42.81966026 1 45 C7.27 45 13.54 45 20 45 C15.545 29.655 15.545 29.655 11 14 C10.67 14 10.34 14 10 14 Z " fill="#FEFEFE" transform="translate(1020,117)"/>
<path d="M0 0 C6.93 0 13.86 0 21 0 C26.7582183 15.80892662 32.35824535 31.66852729 37.88674927 47.55911255 C38.67221221 49.81605194 39.45873612 52.07262236 40.24630737 54.3288269 C41.36661748 57.53973223 42.48273737 60.75206307 43.59765625 63.96484375 C43.94100006 64.94714966 44.28434387 65.92945557 44.63809204 66.94152832 C44.94967255 67.84246216 45.26125305 68.743396 45.58227539 69.67163086 C45.99456139 70.85758095 45.99456139 70.85758095 46.41517639 72.06748962 C47 74 47 74 47 76 C41.06 76 35.12 76 29 76 C28.175 73.586875 27.35 71.17375 26.5 68.6875 C26.23896484 67.93170654 25.97792969 67.17591309 25.70898438 66.3972168 C24.72282302 63.47512677 24 61.10385594 24 58 C15.09 58 6.18 58 -3 58 C-3.99 61.96 -4.98 65.92 -6 70 C-6.66 71.98 -7.32 73.96 -8 76 C-13.94 76 -19.88 76 -26 76 C-23.88870818 68.82462919 -21.60872121 61.728748 -19.19921875 54.6484375 C-18.84036087 53.59073151 -18.48150299 52.53302551 -18.11177063 51.44326782 C-17.35544728 49.21594031 -16.59820528 46.98892455 -15.84008789 44.76220703 C-14.69816443 41.40634046 -13.56082102 38.04894603 -12.42382812 34.69140625 C-8.47095746 23.04918166 -4.39830314 11.48173889 0 0 Z M10 13 C8.87788579 16.77164586 7.75690686 20.5436271 6.63696289 24.31591797 C6.06911871 26.22771636 5.50038489 28.13925043 4.93164062 30.05078125 C4.39506836 31.85869141 4.39506836 31.85869141 3.84765625 33.703125 C3.3527771 35.36843262 3.3527771 35.36843262 2.84790039 37.06738281 C2.18364237 39.36483958 1.58003784 41.67984862 1 44 C7.27 44 13.54 44 20 44 C15.545 28.655 15.545 28.655 11 13 C10.67 13 10.34 13 10 13 Z " fill="#FEFEFE" transform="translate(839,118)"/>
<path d="M0 0 C6.27 0 12.54 0 19 0 C22.37586492 7.25866427 25.0699747 14.64393045 27.66015625 22.21484375 C28.0953636 23.47849985 28.53087063 24.74205277 28.96665955 26.00550842 C29.87422284 28.63946199 30.77911446 31.27431203 31.68188477 33.90991211 C32.82974368 37.26077366 33.98285906 40.6097955 35.13782597 43.95821285 C36.03600532 46.56328929 36.93208153 49.16908521 37.82748222 51.77511787 C38.45534294 53.60196819 39.08435231 55.4284236 39.71339417 57.25486755 C41.95373613 63.79983767 44.0599993 70.35963251 46 77 C40.06 77 34.12 77 28 77 C27.175 74.586875 26.35 72.17375 25.5 69.6875 C25.23896484 68.93170654 24.97792969 68.17591309 24.70898438 67.3972168 C23.72282302 64.47512677 23 62.10385594 23 59 C14.09 59 5.18 59 -4 59 C-4.99 63.95 -4.99 63.95 -6 69 C-6.99 71.64 -7.98 74.28 -9 77 C-14.94 77 -20.88 77 -27 77 C-21.93505371 61.68456718 -16.80558337 46.39090627 -11.61773682 31.1166687 C-11.00131065 29.29988796 -10.3863427 27.48261174 -9.77288818 25.66482544 C-8.89830075 23.07460514 -8.01816006 20.48633226 -7.13671875 17.8984375 C-6.87965652 17.13364578 -6.6225943 16.36885406 -6.35774231 15.58088684 C-4.52876989 10.23803512 -2.34924715 5.13597759 0 0 Z M9 15 C6.03 24.9 3.06 34.8 0 45 C6.27 45 12.54 45 19 45 C18.0650328 41.68676672 17.12709902 38.37441994 16.1875 35.0625 C15.92646484 34.13630859 15.66542969 33.21011719 15.39648438 32.25585938 C13.74612068 26.44902415 11.96611131 20.70780902 10 15 C9.67 15 9.34 15 9 15 Z " fill="#FEFEFE" transform="translate(409,117)"/>
<path d="M0 0 C0.87454834 0.00523682 1.74909668 0.01047363 2.65014648 0.01586914 C3.59438477 0.0190918 4.53862305 0.02231445 5.51147461 0.02563477 C6.50469727 0.03401367 7.49791992 0.04239258 8.52124023 0.05102539 C9.51833008 0.05553711 10.51541992 0.06004883 11.54272461 0.06469727 C14.01478872 0.07652532 16.48673541 0.0930069 18.95874023 0.11352539 C19.35552979 1.28407471 19.75231934 2.45462402 20.16113281 3.66064453 C22.02848705 9.16668364 23.89912642 14.6716029 25.77124023 20.17602539 C26.10866241 21.16817047 26.44608459 22.16031555 26.79373169 23.18252563 C31.6911327 37.57161654 36.67014402 51.92774555 41.80761719 66.23291016 C42.22744873 67.40394287 42.64728027 68.57497559 43.07983398 69.78149414 C43.62788696 71.30166138 43.62788696 71.30166138 44.18701172 72.85253906 C44.95874023 75.11352539 44.95874023 75.11352539 44.95874023 76.11352539 C39.01874023 76.11352539 33.07874023 76.11352539 26.95874023 76.11352539 C23.98874023 67.69852539 23.98874023 67.69852539 20.95874023 59.11352539 C8.08874023 58.61852539 8.08874023 58.61852539 -5.04125977 58.11352539 C-6.03125977 62.07352539 -7.02125977 66.03352539 -8.04125977 70.11352539 C-8.70125977 72.09352539 -9.36125977 74.07352539 -10.04125977 76.11352539 C-15.98125977 76.11352539 -21.92125977 76.11352539 -28.04125977 76.11352539 C-25.57070794 67.65114616 -22.79690473 59.30198625 -19.97094727 50.95336914 C-19.48432153 49.51276259 -18.99776056 48.07213415 -18.51126099 46.63148499 C-17.49885037 43.63494151 -16.48509085 40.63885845 -15.47045898 37.64306641 C-14.16815515 33.79726127 -12.87018202 29.95000951 -11.57328606 26.10237789 C-10.57335864 23.13783647 -9.57073684 20.17421171 -8.56732559 17.21084785 C-8.08713013 15.79133389 -7.60788661 14.37149754 -7.12960434 12.95133781 C-6.46477956 10.9783136 -5.79624123 9.0065871 -5.12670898 7.03515625 C-4.74715057 5.91282089 -4.36759216 4.79048553 -3.97653198 3.63414001 C-2.68346303 0.14924175 -2.68346303 0.14924175 0 0 Z M7.95874023 14.11352539 C6.67520631 18.22470277 5.39350494 22.33644547 4.11352539 26.44873047 C3.67751024 27.84862847 3.24098793 29.2483686 2.80395508 30.64794922 C2.17714284 32.65559614 1.55213567 34.66379716 0.92749023 36.67211914 C0.55043945 37.88182373 0.17338867 39.09152832 -0.21508789 40.33789062 C-1.08880679 42.79060242 -1.08880679 42.79060242 -1.04125977 44.11352539 C5.22874023 44.11352539 11.49874023 44.11352539 17.95874023 44.11352539 C13.50374023 29.26352539 13.50374023 29.26352539 8.95874023 14.11352539 C8.62874023 14.11352539 8.29874023 14.11352539 7.95874023 14.11352539 Z " fill="#FEFEFE" transform="translate(634.041259765625,117.886474609375)"/>
<path d="M0 0 C0.76166977 0.00222061 1.52333954 0.00444122 2.30809021 0.00672913 C3.16890701 0.00680466 4.02972382 0.00688019 4.91662598 0.00695801 C5.8520372 0.01211929 6.78744843 0.01728058 7.75120544 0.02259827 C8.70422043 0.02401321 9.65723541 0.02542816 10.63912964 0.02688599 C13.69605085 0.032503 16.75289996 0.04505836 19.80979919 0.05775452 C21.87685543 0.06276733 23.94391281 0.06733061 26.01097107 0.07142639 C31.08977507 0.08247795 36.16852489 0.09975397 41.24729919 0.12025452 C41.24729919 4.74025452 41.24729919 9.36025452 41.24729919 14.12025452 C32.33729919 14.12025452 23.42729919 14.12025452 14.24729919 14.12025452 C14.74229919 22.04025452 14.74229919 22.04025452 15.24729919 30.12025452 C23.16729919 30.12025452 31.08729919 30.12025452 39.24729919 30.12025452 C39.24729919 34.74025452 39.24729919 39.36025452 39.24729919 44.12025452 C30.99729919 44.12025452 22.74729919 44.12025452 14.24729919 44.12025452 C14.24729919 50.72025452 14.24729919 57.32025452 14.24729919 64.12025452 C23.15729919 63.79025452 32.06729919 63.46025452 41.24729919 63.12025452 C41.24729919 67.74025452 41.24729919 72.36025452 41.24729919 77.12025452 C27.05729919 77.12025452 12.86729919 77.12025452 -1.75270081 77.12025452 C-2.04237554 58.19335304 -2.04237554 58.19335304 -2.15699768 50.15345764 C-2.23537707 44.65772236 -2.3148823 39.16201891 -2.40089417 33.66639709 C-2.47013477 29.23797557 -2.53449122 24.80950802 -2.59539604 20.38096428 C-2.61955603 18.68757466 -2.64550522 16.99420963 -2.67323494 15.30087471 C-2.71163929 12.93740311 -2.74380119 10.57392571 -2.77442932 8.21034241 C-2.78737534 7.50328156 -2.80032135 6.7962207 -2.81365967 6.06773376 C-2.83177532 4.41854833 -2.79784122 2.76892159 -2.75270081 1.12025452 C-1.75270081 0.12025452 -1.75270081 0.12025452 0 0 Z " fill="#FEFEFE" transform="translate(334.75270080566406,116.87974548339844)"/>
<path d="M0 0 C0.83136475 -0.00056396 1.66272949 -0.00112793 2.51928711 -0.00170898 C10.24034326 0.13519183 16.89958672 1.91854336 23.8125 5.375 C23.15830901 10.44498019 20.9578591 14.79490777 18.8125 19.375 C18.14863281 19.09785156 17.48476563 18.82070312 16.80078125 18.53515625 C15.91777344 18.17292969 15.03476562 17.81070313 14.125 17.4375 C13.25488281 17.07785156 12.38476562 16.71820313 11.48828125 16.34765625 C5.2636049 14.08496368 -0.52454762 13.47230428 -6.875 15.625 C-12.83283861 18.77253738 -14.86684739 22.07608577 -17.1875 28.375 C-19.42290473 37.45536816 -19.42380682 47.90238636 -15.1875 56.375 C-12.88461817 59.866466 -11.0749993 61.87525408 -7.1875 63.375 C2.34066113 64.25681299 10.64544203 63.09116533 19.8125 60.375 C19.8125 65.325 19.8125 70.275 19.8125 75.375 C6.99058053 79.25531773 -6.1945497 81.4548804 -19.01953125 76.21875 C-27.96874188 71.38859134 -32.23710659 63.84731568 -35.1875 54.375 C-38.02833656 40.37087612 -36.93619108 25.9431037 -29.5625 13.5 C-22.22625729 3.41498787 -12.02613567 -0.02059477 0 0 Z " fill="#FEFEFE" transform="translate(787.1875,116.625)"/>
<path d="M0 0 C0.71353638 0.30221466 1.42707275 0.60442932 2.16223145 0.915802 C3.6659359 1.55403561 5.16864558 2.19461746 6.67041016 2.83740234 C8.95859943 3.8159715 11.25047833 4.78546307 13.54296875 5.75390625 C15.00804192 6.37706507 16.47289323 7.00074578 17.9375 7.625 C18.61784302 7.912612 19.29818604 8.200224 19.99914551 8.49655151 C23.66830521 10.07339992 27.09958997 11.79945913 30.46875 13.9453125 C27.89695814 16.51710436 26.6060939 16.31413979 23.0234375 16.578125 C21.94707031 16.66191406 20.87070313 16.74570313 19.76171875 16.83203125 C18.06982422 16.94998047 18.06982422 16.94998047 16.34375 17.0703125 C15.20808594 17.15667969 14.07242188 17.24304688 12.90234375 17.33203125 C10.09174953 17.5445972 7.28031523 17.74600094 4.46875 17.9453125 C8.42875 19.9253125 12.38875 21.9053125 16.46875 23.9453125 C16.46875 29.5553125 16.46875 35.1653125 16.46875 40.9453125 C11.88338822 40.02824014 8.22570069 38.69201654 3.96875 36.8828125 C-8.13352166 32.34446063 -21.99434748 34.58541765 -33.53125 39.6328125 C-36.53125 40.9453125 -36.53125 40.9453125 -39.53125 40.9453125 C-39.53125 35.3353125 -39.53125 29.7253125 -39.53125 23.9453125 C-35.57125 21.9653125 -31.61125 19.9853125 -27.53125 17.9453125 C-35.45125 17.2853125 -43.37125 16.6253125 -51.53125 15.9453125 C-51.86125 14.9553125 -52.19125 13.9653125 -52.53125 12.9453125 C-46.93342911 10.48896663 -41.32842617 8.05013606 -35.71606445 5.62719727 C-33.80806627 4.80058726 -31.90211474 3.96923628 -29.99829102 3.13305664 C-27.2606246 1.93162442 -24.51603937 0.74746048 -21.76953125 -0.43359375 C-20.92038651 -0.81060928 -20.07124176 -1.18762482 -19.19636536 -1.57606506 C-11.50181194 -4.84851921 -7.54735592 -3.23552275 0 0 Z " fill="#FEFEFE" transform="translate(145.53125,87.0546875)"/>
<path d="M0 0 C5.28 0 10.56 0 16 0 C16 20.46 16 40.92 16 62 C26.23 62 36.46 62 47 62 C47 66.62 47 71.24 47 76 C31.49 76 15.98 76 0 76 C0 50.92 0 25.84 0 0 Z " fill="#FFFFFF" transform="translate(276,118)"/>
<path d="M0 0 C5.28 0 10.56 0 16 0 C16 25.08 16 50.16 16 76 C10.72 76 5.44 76 0 76 C0 50.92 0 25.84 0 0 Z " fill="#FFFFFF" transform="translate(970,118)"/>
<path d="M0 0 C2.31 0 4.62 0 7 0 C7.64779076 2.39531933 8.29329009 4.79121748 8.9375 7.1875 C9.11990234 7.86103516 9.30230469 8.53457031 9.49023438 9.22851562 C10.4488358 12.80148458 11.32883282 16.36156738 12 20 C13.51114345 15.57548088 14.85183226 11.12352601 16.125 6.625 C16.65480469 4.75714844 16.65480469 4.75714844 17.1953125 2.8515625 C17.46085938 1.91054687 17.72640625 0.96953125 18 0 C20.31 0 22.62 0 25 0 C25.62591479 2.02055018 26.25068609 4.0414546 26.875 6.0625 C27.22304688 7.18785156 27.57109375 8.31320313 27.9296875 9.47265625 C28.99159941 12.97231483 30.00479732 16.48092746 31 20 C31.27714844 18.72382813 31.55429687 17.44765625 31.83984375 16.1328125 C32.20558957 14.46351107 32.57148262 12.7942419 32.9375 11.125 C33.21110352 9.86236328 33.21110352 9.86236328 33.49023438 8.57421875 C33.66748047 7.76855469 33.84472656 6.96289062 34.02734375 6.1328125 C34.18968506 5.38918457 34.35202637 4.64555664 34.51928711 3.87939453 C35 2 35 2 36 0 C38.31 0 40.62 0 43 0 C41.88028786 7.28648495 40.22167755 14.41557625 38.4375 21.5625 C38.21553955 22.45549805 37.9935791 23.34849609 37.76489258 24.26855469 C36.12932926 30.74134147 36.12932926 30.74134147 35 33 C32.36 33 29.72 33 27 33 C25.35 27.06 23.7 21.12 22 15 C20.11216784 18.77566433 19.00090376 22.19674646 17.875 26.25 C17.52179687 27.51328125 17.16859375 28.7765625 16.8046875 30.078125 C16.53914062 31.04234375 16.27359375 32.0065625 16 33 C13.36 33 10.72 33 8 33 C6.85588819 28.7837502 5.7166931 24.56621222 4.58203125 20.34741211 C4.19535961 18.91247755 3.80734788 17.4779034 3.41796875 16.04370117 C2.8584468 13.98189132 2.30376041 11.91883244 1.75 9.85546875 C1.41484375 8.61434326 1.0796875 7.37321777 0.734375 6.09448242 C0 3 0 3 0 0 Z " fill="#FEFEFE" transform="translate(823,222)"/>
<path d="M0 0 C3.3 0 6.6 0 10 0 C13.96 6.93 17.92 13.86 22 21 C22 14.07 22 7.14 22 0 C24.31 0 26.62 0 29 0 C29 10.89 29 21.78 29 33 C26.03 33 23.06 33 20 33 C17.77912702 30.5099303 16.61038597 28.83516221 15.1875 25.9375 C14.65479492 24.95233398 14.65479492 24.95233398 14.11132812 23.94726562 C13.40331953 22.63350197 12.70890365 21.31231505 12.02880859 19.98388672 C10.44706329 16.93375327 8.72070956 13.97354079 7 11 C7.00523682 11.63091553 7.01047363 12.26183105 7.01586914 12.91186523 C7.03657826 15.75373347 7.04964066 18.59558588 7.0625 21.4375 C7.07087891 22.43072266 7.07925781 23.42394531 7.08789062 24.44726562 C7.09111328 25.39150391 7.09433594 26.33574219 7.09765625 27.30859375 C7.10289307 28.18314209 7.10812988 29.05769043 7.11352539 29.95874023 C7 32 7 32 6 33 C4.02 33 2.04 33 0 33 C0 22.11 0 11.22 0 0 Z " fill="#FEFEFE" transform="translate(591,222)"/>
<path d="M0 0 C3.3 0 6.6 0 10 0 C13.96 6.93 17.92 13.86 22 21 C22 14.07 22 7.14 22 0 C24.31 0 26.62 0 29 0 C29 10.89 29 21.78 29 33 C20 33 20 33 17.78491211 30.98046875 C17.28741455 30.05878906 16.78991699 29.13710937 16.27734375 28.1875 C15.44106445 26.69863281 15.44106445 26.69863281 14.58789062 25.1796875 C14.04326172 24.13039062 13.49863281 23.08109375 12.9375 22 C12.35806641 20.95070312 11.77863281 19.90140625 11.18164062 18.8203125 C9.75622387 16.22864567 8.36491656 13.62388793 7 11 C7.00523682 11.63091553 7.01047363 12.26183105 7.01586914 12.91186523 C7.03657826 15.75373347 7.04964066 18.59558588 7.0625 21.4375 C7.07087891 22.43072266 7.07925781 23.42394531 7.08789062 24.44726562 C7.09111328 25.39150391 7.09433594 26.33574219 7.09765625 27.30859375 C7.10289307 28.18314209 7.10812988 29.05769043 7.11352539 29.95874023 C7 32 7 32 6 33 C3.5 33.125 3.5 33.125 1 33 C0 32 0 32 -0.11352539 28.94897461 C-0.11336634 27.60008729 -0.10767612 26.25119386 -0.09765625 24.90234375 C-0.0962413 24.19348526 -0.09482635 23.48462677 -0.09336853 22.75428772 C-0.08775443 20.48198288 -0.07519963 18.20977525 -0.0625 15.9375 C-0.05748681 14.40039204 -0.05292359 12.86328255 -0.04882812 11.32617188 C-0.03778042 7.55074358 -0.02050641 3.77538829 0 0 Z " fill="#FEFEFE" transform="translate(538,222)"/>
<path d="M0 0 C4.531659 2.14058264 6.52830583 4.87203567 8.4375 9.4375 C9.48797417 16.09050305 9.66248932 22.14491675 6 28 C2.50572929 31.32558178 -1.20994173 33.2734214 -6.0625 33.5 C-11.91073979 32.75736638 -15.64521983 31.71130127 -19.375 27 C-22.28120634 21.63469599 -22.63885367 16.9981261 -22 11 C-20.71909304 6.85097529 -19.25724861 3.94457635 -15.75390625 1.3125 C-10.688429 -1.1016849 -5.46695662 -0.82037971 0 0 Z M-12.375 7.875 C-14.63443308 12.22006361 -14.67325176 16.18546705 -14 21 C-12.77059142 24.21799113 -12.35768538 24.81718303 -9.1875 26.4375 C-6.00361345 27.3006214 -6.00361345 27.3006214 -3.25 25.8125 C-0.73989335 23.79046964 0.82907595 22.18536938 1.30078125 18.9140625 C1.32532743 14.11937481 1.1524817 10.87997748 -2 7 C-5.89889086 5.05055457 -8.95492653 5.174942 -12.375 7.875 Z " fill="#FEFEFE" transform="translate(328,222)"/>
<path d="M0 0 C3.56714385 1.55343361 5.39054226 3.7597748 7.1171875 7.2734375 C8.88086157 12.72053706 9.22717177 19.64109171 7.2421875 25.07421875 C5.0048468 28.57116464 2.06529343 31.21661284 -1.8125 32.6875 C-7.72370795 33.53195828 -11.90796392 33.28153436 -17 30 C-22.26616899 24.16451544 -22.3405512 20.16514652 -22.28515625 12.43359375 C-21.83787916 7.04788742 -20.16972438 5.04588166 -16.2890625 1.38671875 C-11.49180341 -1.51947063 -5.38956232 -0.669006 0 0 Z M-12.3125 7.5 C-14.59576851 10.88262001 -15.17898878 13.995126 -15 18 C-14.4085152 20.91761253 -13.62964725 22.37153669 -12 25 C-9.21481845 26.8175397 -9.21481845 26.8175397 -6 27 C-2.86504675 25.78876806 -1.44685379 24.69059222 0.375 21.875 C1.27215005 17.74810976 1.04497071 14.08835257 0 10 C-1.50279176 7.3284596 -1.50279176 7.3284596 -4 6 C-7.5787606 5.4035399 -9.25655959 5.51776838 -12.3125 7.5 Z " fill="#FEFEFE" transform="translate(733,222)"/>
<path d="M0 0 C2.56314499 -0.08132187 5.12368418 -0.14064175 7.6875 -0.1875 C8.40873047 -0.21263672 9.12996094 -0.23777344 9.87304688 -0.26367188 C14.47207891 -0.32667231 17.37434807 0.11427704 21 3 C23.44031962 6.66047942 23.73696072 9.74105256 23 14 C21 16.5 21 16.5 19 18 C20.43060331 22.16175509 22.56513456 25.58544906 24.9765625 29.23046875 C26 31 26 31 26 33 C22.9375 33.625 22.9375 33.625 19 33 C15.70538087 29.42705352 13.17041735 25.34083469 11 21 C10.01 20.67 9.02 20.34 8 20 C8.01160156 20.85464844 8.02320313 21.70929688 8.03515625 22.58984375 C8.04417969 23.69457031 8.05320312 24.79929688 8.0625 25.9375 C8.07410156 27.03964844 8.08570313 28.14179688 8.09765625 29.27734375 C8 32 8 32 7 33 C4 33.125 4 33.125 1 33 C0 32 0 32 -0.11352539 28.94897461 C-0.11336634 27.60008729 -0.10767612 26.25119386 -0.09765625 24.90234375 C-0.0962413 24.19348526 -0.09482635 23.48462677 -0.09336853 22.75428772 C-0.08775443 20.48198288 -0.07519963 18.20977525 -0.0625 15.9375 C-0.05748681 14.40039204 -0.05292359 12.86328255 -0.04882812 11.32617188 C-0.03778042 7.55074358 -0.02050641 3.77538829 0 0 Z M7 6 C7 8.64 7 11.28 7 14 C11.7897321 14.23428313 11.7897321 14.23428313 16 12 C15.65555119 9.52733235 15.65555119 9.52733235 15 7 C12.29120665 5.64560332 9.99066732 5.93498549 7 6 Z " fill="#FEFDFE" transform="translate(782,222)"/>
<path d="M0 0 C16 0 16 0 22 4 C23.36555203 6.99224548 23.4594889 9.7555601 23 13 C21.5938866 15.51971416 20.12469746 16.97894632 18 19 C18.5775 19.84304687 19.155 20.68609375 19.75 21.5546875 C20.50024193 22.66129435 21.25022874 23.76807419 22 24.875 C22.7425 25.96554688 23.485 27.05609375 24.25 28.1796875 C26 31 26 31 26 33 C22.75 33.3125 22.75 33.3125 19 33 C16.8125 30.875 16.8125 30.875 15 28 C14.2575 26.948125 13.515 25.89625 12.75 24.8125 C11 22 11 22 11 20 C9.68 20 8.36 20 7 20 C7 24.29 7 28.58 7 33 C4.69 33 2.38 33 0 33 C0 22.11 0 11.22 0 0 Z M7 6 C7 8.64 7 11.28 7 14 C11.18966713 14.34685528 11.18966713 14.34685528 14.9375 12.75 C16.21450959 11.03598141 16.21450959 11.03598141 15.8125 8.875 C15.1564434 6.81035868 15.1564434 6.81035868 13 6 C11.00039988 5.960008 8.99952758 5.95653201 7 6 Z " fill="#FEFEFE" transform="translate(378,222)"/>
<path d="M0 0 C16 0 16 0 22 4 C23.57455739 7.14911479 23.34799118 9.52008816 23 13 C21.54526197 15.33470194 19.93980241 17.01170253 18 19 C18.5775 19.84304687 19.155 20.68609375 19.75 21.5546875 C20.50024193 22.66129435 21.25022874 23.76807419 22 24.875 C22.7425 25.96554688 23.485 27.05609375 24.25 28.1796875 C26 31 26 31 26 33 C22.9375 33.625 22.9375 33.625 19 33 C15.70538087 29.42705352 13.17041735 25.34083469 11 21 C9.68 20.67 8.36 20.34 7 20 C7 24.29 7 28.58 7 33 C4.69 33 2.38 33 0 33 C0 22.11 0 11.22 0 0 Z M7 6 C7 8.64 7 11.28 7 14 C11.18966713 14.34685528 11.18966713 14.34685528 14.9375 12.75 C16.21450959 11.03598141 16.21450959 11.03598141 15.8125 8.875 C15.1564434 6.81035868 15.1564434 6.81035868 13 6 C11.00039988 5.960008 8.99952758 5.95653201 7 6 Z " fill="#FEFEFE" transform="translate(507,222)"/>
<path d="M0 0 C-0.66 1.98 -1.32 3.96 -2 6 C-3.22976563 5.94779297 -3.22976563 5.94779297 -4.484375 5.89453125 C-6.10085938 5.85392578 -6.10085938 5.85392578 -7.75 5.8125 C-8.81734375 5.77769531 -9.8846875 5.74289063 -10.984375 5.70703125 C-14.34736544 6.03374664 -15.63641253 6.63089013 -18 9 C-19.53784153 13.6135246 -19.74741859 17.43721569 -17.625 21.875 C-16.17239958 24.09664825 -16.17239958 24.09664825 -14 25 C-12.00039988 25.039992 -9.99952758 25.04346799 -8 25 C-8 23.35 -8 21.7 -8 20 C-9.65 19.67 -11.3 19.34 -13 19 C-13 17.02 -13 15.04 -13 13 C-8.71 13 -4.42 13 0 13 C0 18.61 0 24.22 0 30 C-8.94790166 32.23697541 -14.09269657 33.32719879 -22.23828125 29.4609375 C-25.78358974 26.52092558 -26.88541406 22.9986951 -27.3984375 18.52734375 C-27.39070312 17.34269531 -27.38296875 16.15804687 -27.375 14.9375 C-27.38273438 13.75027344 -27.39046875 12.56304687 -27.3984375 11.33984375 C-26.79833009 6.30953161 -25.05426203 3.86683767 -21.1875 0.6875 C-15.18269095 -2.51506483 -6.31224271 -2.1040809 0 0 Z " fill="#FEFEFE" transform="translate(654,223)"/>
<path d="M0 0 C2.64 0 5.28 0 8 0 C8.01458252 0.71655762 8.02916504 1.43311523 8.04418945 2.17138672 C8.11849 5.40647983 8.21520861 8.64052019 8.3125 11.875 C8.33505859 13.00292969 8.35761719 14.13085938 8.38085938 15.29296875 C8.41630859 16.36933594 8.45175781 17.44570312 8.48828125 18.5546875 C8.51446533 19.54968262 8.54064941 20.54467773 8.56762695 21.56982422 C8.78165161 22.77276123 8.78165161 22.77276123 9 24 C11.82462068 26.30787112 11.82462068 26.30787112 15.0625 25.875 C18.05163023 25.32597629 18.05163023 25.32597629 19.15771484 23.25683594 C20.09914728 20.73434278 20.31572908 18.7034051 20.4140625 16.015625 C20.45273437 15.08105469 20.49140625 14.14648438 20.53125 13.18359375 C20.5621875 12.21550781 20.593125 11.24742187 20.625 10.25 C20.66367187 9.26644531 20.70234375 8.28289062 20.7421875 7.26953125 C20.83628426 4.84653963 20.92192328 2.42355204 21 0 C23.31 0 25.62 0 28 0 C28.08756305 3.70818297 28.14058015 7.41609763 28.1875 11.125 C28.21263672 12.17171875 28.23777344 13.2184375 28.26367188 14.296875 C28.31729547 19.94522714 28.29089079 24.16326704 25 29 C21.77620947 31.92156017 19.11759726 32.91403098 14.75 33.25 C9.72582621 32.91505508 5.74475651 31.74475651 2.125 28.125 C0.06403003 24.23205673 -0.12429227 20.25963972 -0.09765625 15.91796875 C-0.09443359 14.98662109 -0.09121094 14.05527344 -0.08789062 13.09570312 C-0.07951172 12.13599609 -0.07113281 11.17628906 -0.0625 10.1875 C-0.05798828 9.20845703 -0.05347656 8.22941406 -0.04882812 7.22070312 C-0.03708684 4.81373889 -0.02066419 2.40690143 0 0 Z " fill="#FEFDFE" transform="translate(747,222)"/>
<path d="M0 0 C3.3 0 6.6 0 10 0 C13.63 10.56 17.26 21.12 21 32 C20 33 20 33 16.4375 33.0625 C15.303125 33.041875 14.16875 33.02125 13 33 C12.34 30.36 11.68 27.72 11 25 C7.04 25 3.08 25 -1 25 C-1.2165625 26.7015625 -1.2165625 26.7015625 -1.4375 28.4375 C-2 32 -2 32 -3 33 C-5.33297433 33.04092937 -7.66705225 33.04241723 -10 33 C-8.52037974 25.59411122 -6.31186985 18.58019802 -3.875 11.4375 C-3.50246094 10.33341797 -3.12992188 9.22933594 -2.74609375 8.09179688 C-1.83484757 5.39310627 -0.91940476 2.69591967 0 0 Z M5 7 C4.49384702 8.26839526 3.99530901 9.53983102 3.5 10.8125 C3.2215625 11.52019531 2.943125 12.22789062 2.65625 12.95703125 C1.8470838 15.11841216 1.8470838 15.11841216 2 18 C4.31 18 6.62 18 9 18 C8.01 14.37 7.02 10.74 6 7 C5.67 7 5.34 7 5 7 Z " fill="#FEFDFE" transform="translate(878,222)"/>
<path d="M0 0 C2.97 0 5.94 0 9 0 C12.13598078 7.07677078 14.84994191 14.22794262 17.3125 21.5625 C17.57885254 22.34802246 17.84520508 23.13354492 18.11962891 23.94287109 C19.15195913 27.06426352 20 29.69018312 20 33 C17.69 33 15.38 33 13 33 C11.23537317 29.91190305 11 28.76687864 11 25 C7.04 25 3.08 25 -1 25 C-1.66 27.64 -2.32 30.28 -3 33 C-5.31 33 -7.62 33 -10 33 C-11 31 -11 31 -10.10375977 27.92724609 C-9.64075779 26.62318719 -9.16937737 25.32208451 -8.69140625 24.0234375 C-8.32304909 22.99556625 -8.32304909 22.99556625 -7.94725037 21.94692993 C-7.15940587 19.75366309 -6.36109792 17.56437144 -5.5625 15.375 C-5.02730258 13.89087444 -4.49278847 12.40650228 -3.95898438 10.921875 C-2.64724168 7.27833866 -1.32610101 3.63833378 0 0 Z M4 7 C2.515 12.445 2.515 12.445 1 18 C3.31 18 5.62 18 8 18 C7.71758359 16.53984709 7.42373386 15.08190207 7.125 13.625 C6.88136719 12.40683594 6.88136719 12.40683594 6.6328125 11.1640625 C6.13341068 8.81326077 6.13341068 8.81326077 4 7 Z " fill="#FEFEFE" transform="translate(482,222)"/>
<path d="M0 0 C2.31 0 4.62 0 7 0 C7.0093457 0.64549805 7.01869141 1.29099609 7.02832031 1.95605469 C7.08209101 4.88813944 7.1657234 7.81864008 7.25 10.75 C7.26417969 11.76578125 7.27835937 12.7815625 7.29296875 13.828125 C7.40323993 19.61810451 7.40323993 19.61810451 9.84765625 24.71484375 C12.03983041 26.29735651 12.03983041 26.29735651 15.1875 25.8125 C17.88143219 25.27959359 17.88143219 25.27959359 19 24 C19.15764405 22.22130274 19.25100677 20.43681524 19.31640625 18.65234375 C19.35830078 17.57275391 19.40019531 16.49316406 19.44335938 15.38085938 C19.48267578 14.24455078 19.52199219 13.10824219 19.5625 11.9375 C19.62727539 10.22723633 19.62727539 10.22723633 19.69335938 8.48242188 C19.79982839 5.65507805 19.90184207 2.82764262 20 0 C22.31 0 24.62 0 27 0 C27.14541967 4.22880411 27.23411527 8.45696413 27.3125 12.6875 C27.35439453 13.88568359 27.39628906 15.08386719 27.43945312 16.31835938 C27.56018853 24.98716145 27.56018853 24.98716145 25.94824219 27.90161133 C22.35654465 31.57240065 18.56033753 32.85815113 13.5625 33.3125 C8.91527102 32.90484834 5.77008562 31.46489844 2.1875 28.5 C-0.28602435 25.37554819 -0.11779499 22.26325235 -0.09765625 18.45703125 C-0.09443359 17.38388672 -0.09121094 16.31074219 -0.08789062 15.20507812 C-0.07951172 14.08552734 -0.07113281 12.96597656 -0.0625 11.8125 C-0.05798828 10.68134766 -0.05347656 9.55019531 -0.04882812 8.38476562 C-0.03703498 5.58979073 -0.0205765 2.7949218 0 0 Z " fill="#FEFEFE" transform="translate(343,222)"/>
<path d="M0 0 C2 1 2 1 2.8515625 3.50390625 C3.56770833 6.3359375 4.28385417 9.16796875 5 12 C8.96 12 12.92 12 17 12 C14.80682128 16.38635744 13.08649371 17.51256905 9 20 C9.144375 20.845625 9.28875 21.69125 9.4375 22.5625 C10.0058797 26.03593149 10.51202393 29.51445662 11 33 C7.00499382 31.6302836 4.19990508 29.74277578 1 27 C-3.01409454 28.37626099 -5.72309126 30.34304697 -9 33 C-9.66 33 -10.32 33 -11 33 C-10.39174965 28.65535464 -9.73832608 24.32448133 -9 20 C-9.5775 19.59007813 -10.155 19.18015625 -10.75 18.7578125 C-11.4925 18.21898438 -12.235 17.68015625 -13 17.125 C-13.7425 16.59132813 -14.485 16.05765625 -15.25 15.5078125 C-16.11625 14.76144531 -16.11625 14.76144531 -17 14 C-17 13.34 -17 12.68 -17 12 C-12.71 12 -8.42 12 -4 12 C-3.67 10.35 -3.34 8.7 -3 7 C-2.10694126 4.60771311 -1.05103974 2.33056638 0 0 Z " fill="#FEFEFE" transform="translate(134,4)"/>
<path d="M0 0 C6.27 0 12.54 0 19 0 C19 1.98 19 3.96 19 6 C15.04 6 11.08 6 7 6 C7 7.98 7 9.96 7 12 C10.63 12 14.26 12 18 12 C18 13.98 18 15.96 18 18 C14.37 18 10.74 18 7 18 C7 20.97 7 23.94 7 27 C10.96 27 14.92 27 19 27 C19 28.98 19 30.96 19 33 C12.73 33 6.46 33 0 33 C0 22.11 0 11.22 0 0 Z " fill="#FEFEFE" transform="translate(448,222)"/>
<path d="M0 0 C2.64 0 5.28 0 8 0 C8.84114171 1.43294498 9.67265687 2.87154405 10.5 4.3125 C10.9640625 5.11300781 11.428125 5.91351563 11.90625 6.73828125 C13 9 13 9 13 12 C13.66 12 14.32 12 15 12 C15.268125 11.13375 15.53625 10.2675 15.8125 9.375 C16.97111987 6.08208036 18.38209839 3.08872125 20 0 C22.64 0 25.28 0 28 0 C26.71338868 4.39646078 24.98580227 7.71212689 22.4375 11.5 C18.83446705 17.44537735 18.17555727 22.3832214 18.0703125 29.26171875 C18 32 18 32 17 33 C14 33.125 14 33.125 11 33 C10.67 32.67 10.34 32.34 10 32 C10 29.97916667 10 27.95833333 10 25.9375 C9.53493026 17.70999358 6.22493873 12.09045816 1.93359375 5.203125 C0 2 0 2 0 0 Z " fill="#FEFEFE" transform="translate(899,222)"/>
<path d="M0 0 C2.64 0 5.28 0 8 0 C9.98 3.63 11.96 7.26 14 11 C15.98 7.37 17.96 3.74 20 0 C22.97 0 25.94 0 29 0 C28.44570313 1.03640625 27.89140625 2.0728125 27.3203125 3.140625 C26.58851391 4.51040184 25.85674462 5.88019433 25.125 7.25 C24.76019531 7.93191406 24.39539063 8.61382812 24.01953125 9.31640625 C23.313079 10.63939864 22.61064547 11.96454619 21.91259766 13.29199219 C21.23649801 14.5573729 20.51938541 15.80102432 19.78125 17.03125 C18.58105781 20.05573431 18.55461617 23.01690888 18.375 26.25 C18.30023437 27.51328125 18.22546875 28.7765625 18.1484375 30.078125 C18.09945312 31.04234375 18.05046875 32.0065625 18 33 C15.69 33 13.38 33 11 33 C11.04382813 32.27039063 11.08765625 31.54078125 11.1328125 30.7890625 C11.10619559 20.00921335 6.48750396 12.61999512 0.90209961 3.6730957 C0 2 0 2 0 0 Z " fill="#FEFEFE" transform="translate(679,222)"/>
<path d="M0 0 C2.64 0 5.28 0 8 0 C9.98 3.63 11.96 7.26 14 11 C14.969375 9.370625 15.93875 7.74125 16.9375 6.0625 C19.875 1.125 19.875 1.125 21 0 C23.67058851 -0.14115161 26.32432238 -0.04247107 29 0 C28.08597517 1.8554704 27.16863711 3.70930879 26.25 5.5625 C25.43208984 7.22345703 25.43208984 7.22345703 24.59765625 8.91796875 C23.39476934 11.23845229 22.17537041 13.25025517 20.6875 15.375 C18.06237953 21.01414767 18.17067624 26.84712166 18 33 C15.69 33 13.38 33 11 33 C11.04382813 32.19820312 11.08765625 31.39640625 11.1328125 30.5703125 C11.10737513 19.35243401 6.73233587 11.8668421 0.90209961 2.54370117 C0 1 0 1 0 0 Z " fill="#FEFEFE" transform="translate(274,222)"/>
<path d="M0 0 C2.31 0.66 4.62 1.32 7 2 C6.78085938 3.01191406 6.56171875 4.02382812 6.3359375 5.06640625 C-0.76217667 37.3054179 -0.76217667 37.3054179 -5 70 C-5.66 70 -6.32 70 -7 70 C-7.9369625 62.25913134 -8.00852939 54.890727 -7.375 47.125 C-7.24557007 45.47540283 -7.24557007 45.47540283 -7.11352539 43.79248047 C-5.83465689 29.19761124 -3.72439738 14.17428237 0 0 Z " fill="#FEFDFE" transform="translate(88,103)"/>
<path d="M0 0 C4.80578255 23.24743832 8.7661041 46.19402431 8 70 C7.01 70.495 7.01 70.495 6 71 C5.88519287 70.16267334 5.77038574 69.32534668 5.65209961 68.46264648 C2.57300254 46.33436265 -1.54056944 24.67159398 -7 3 C-2.25 0 -2.25 0 0 0 Z " fill="#FEFDFE" transform="translate(180,103)"/>
<path d="M0 0 C2.31 0 4.62 0 7 0 C7 8.91 7 17.82 7 27 C11.62 27 16.24 27 21 27 C21 28.65 21 30.3 21 32 C20 33 20 33 18.05053711 33.11352539 C16.8015564 33.10567017 16.8015564 33.10567017 15.52734375 33.09765625 C14.71773193 33.09515869 13.90812012 33.09266113 13.07397461 33.09008789 C12.03893799 33.08098389 11.00390137 33.07187988 9.9375 33.0625 C6.658125 33.041875 3.37875 33.02125 0 33 C0 22.11 0 11.22 0 0 Z " fill="#FEFDFE" transform="translate(421,222)"/>
<path d="M0 0 C0.66 0 1.32 0 2 0 C2.99 3.3 3.98 6.6 5 10 C7.97 10 10.94 10 14 10 C14 10.66 14 11.32 14 12 C12.03852126 13.38938077 10.03833424 14.7260411 8 16 C8.66 19.3 9.32 22.6 10 26 C7.0280615 24.87548273 4.66559313 23.77706209 2 22 C-1.50823938 22.35082394 -4.03470457 24.20521592 -7 26 C-7.66 26 -8.32 26 -9 26 C-8.34 22.7 -7.68 19.4 -7 16 C-7.99 15.195625 -8.98 14.39125 -10 13.5625 C-10.99 12.716875 -11.98 11.87125 -13 11 C-13 10.67 -13 10.34 -13 10 C-12.39671875 10.03222656 -11.7934375 10.06445312 -11.171875 10.09765625 C-8.5229713 10.05920442 -6.49995369 9.90359772 -4 9 C-1.99047395 6.20459632 -0.95103922 3.29205884 0 0 Z " fill="#FEFEFE" transform="translate(93,20)"/>
<path d="M0 0 C2.46278801 2.46278801 2.99771255 4.70676982 4 8 C6.97 8.33 9.94 8.66 13 9 C12.195625 9.763125 11.39125 10.52625 10.5625 11.3125 C7.83200976 13.79430898 7.83200976 13.79430898 7 17 C7.59793673 19.35188447 8.25881795 21.68925595 9 24 C5.51460083 23.35455571 2.97180943 21.89865603 0 20 C-2.64 21.65 -5.28 23.3 -8 25 C-7 17.57142857 -7 17.57142857 -6 14 C-6.61875 13.690625 -7.2375 13.38125 -7.875 13.0625 C-9.25 12.375 -10.625 11.6875 -12 11 C-12 10.34 -12 9.68 -12 9 C-9.03 9 -6.06 9 -3 9 C-2.01 6.03 -1.02 3.06 0 0 Z " fill="#FEFEFE" transform="translate(175,21)"/>
<path d="M0 0 C2.31 0 4.62 0 7 0 C7 10.89 7 21.78 7 33 C4.69 33 2.38 33 0 33 C0 22.11 0 11.22 0 0 Z " fill="#FEFEFE" transform="translate(576,222)"/>
<path d="M0 0 C0.66 0 1.32 0 2 0 C2.66 2.31 3.32 4.62 4 7 C6.64 7 9.28 7 12 7 C11.1875 8.9375 11.1875 8.9375 10 11 C9.01 11.33 8.02 11.66 7 12 C7.66 14.97 8.32 17.94 9 21 C8.2575 20.690625 7.515 20.38125 6.75 20.0625 C5.38875 19.5365625 5.38875 19.5365625 4 19 C3.319375 18.731875 2.63875 18.46375 1.9375 18.1875 C-0.15688682 17.77703412 -0.15688682 17.77703412 -2.125 19.4375 C-3.053125 20.2109375 -3.053125 20.2109375 -4 21 C-4.66 21 -5.32 21 -6 21 C-5.5978125 19.14375 -5.5978125 19.14375 -5.1875 17.25 C-4.82541866 15.07302035 -4.82541866 15.07302035 -5 13 C-7.32069965 10.57583999 -7.32069965 10.57583999 -10 9 C-10 8.34 -10 7.68 -10 7 C-7.36 6.67 -4.72 6.34 -2 6 C-1.34 4.02 -0.68 2.04 0 0 Z " fill="#FEFEFE" transform="translate(204,44)"/>
<path d="M0 0 C0.66 0 1.32 0 2 0 C2.66 1.98 3.32 3.96 4 6 C6.64 6.33 9.28 6.66 12 7 C12 7.66 12 8.32 12 9 C8.53846154 12 8.53846154 12 6 12 C6.66 14.97 7.32 17.94 8 21 C6.68 20.34 5.36 19.68 4 19 C1.53951544 18.09111938 1.53951544 18.09111938 -1 18 C-3.19038423 19.37168238 -3.19038423 19.37168238 -5 21 C-5.66 21 -6.32 21 -7 21 C-6.34 18.03 -5.68 15.06 -5 12 C-6.32 11.34 -7.64 10.68 -9 10 C-9.33 9.01 -9.66 8.02 -10 7 C-7.36 7 -4.72 7 -2 7 C-1.855625 6.21625 -1.71125 5.4325 -1.5625 4.625 C-1 2 -1 2 0 0 Z " fill="#FEFEFE" transform="translate(62,44)"/>
<path d="M0 0 C2.00720923 0.28674418 4.0085944 0.61866701 6 1 C5.68950274 2.43793392 5.3765224 3.8753318 5.0625 5.3125 C4.88847656 6.11300781 4.71445312 6.91351563 4.53515625 7.73828125 C4 10 4 10 3 13 C1.02 13 -0.96 13 -3 13 C-2.69240822 11.02006459 -2.3787932 9.04106401 -2.0625 7.0625 C-1.88847656 5.96035156 -1.71445312 4.85820312 -1.53515625 3.72265625 C-1 1 -1 1 0 0 Z " fill="#FDFDFD" transform="translate(661,248)"/>
</svg>
