<svg xmlns="http://www.w3.org/2000/svg" version="1.1" xmlns:xlink="http://www.w3.org/1999/xlink" width="18" height="18" x="0" y="0" viewBox="0 0 512 512" style="enable-background:new 0 0 512 512" xml:space="preserve" class=""><g><path d="m505.01 260.94-72.99-42.13 72.99-42.13c1.86-1.07 3.01-3.06 3.01-5.2s-1.15-4.13-3.01-5.2L344 73.34V48.89c0-9.69-7.88-17.57-17.58-17.57H185.57c-9.69 0-17.58 7.88-17.58 17.57v24.45l-161 92.93c-1.86 1.07-3.01 3.06-3.01 5.2s1.15 4.13 3.01 5.2l72.99 42.13-72.99 42.14c-1.86 1.07-3.01 3.06-3.01 5.2s1.15 4.13 3.01 5.2l79 45.6V380c0 2.15 1.15 4.13 3.01 5.2l164.01 94.68c.93.54 1.97.8 3 .8s2.08-.27 3-.81l163.98-94.68a6 6 0 0 0 3-5.2v-63.06l79-45.6c1.86-1.07 3.01-3.06 3.01-5.2s-1.15-4.13-3.01-5.2zm-314.45-99.59v47.9l-13.55-7.83a5.98 5.98 0 0 0-6.01 0l-13.55 7.83v-47.9zm-42.12 63.51a6.018 6.018 0 0 0 6.01-.01l19.56-11.3 19.56 11.3a6.014 6.014 0 0 0 9.02-5.21v-58.31h41.87c3.01 0 5.56 2.54 5.56 5.56v136.17L98.01 215.34v-48.43c0-3.01 2.54-5.56 5.56-5.56h41.87v58.31c0 2.15 1.15 4.13 3.01 5.21zm113.58-57.96c0-3.06 2.49-5.56 5.56-5.56h41.87v58.31c0 2.15 1.15 4.13 3.01 5.21a6.018 6.018 0 0 0 6.01-.01l19.53-11.3 19.55 11.3a6.014 6.014 0 0 0 9.02-5.21v-58.31h41.87c3.06 0 5.56 2.49 5.56 5.56v48.43l-151.96 87.74V166.91zm92.52-5.56v47.9l-13.55-7.83a5.998 5.998 0 0 0-6.02 0l-13.52 7.82v-47.89h33.08zm135.44 10.12L426 208.39V166.9c0-9.69-7.88-17.57-17.58-17.57h-64.43V87.2l145.98 84.27zM239.46 43.32h33.08v47.89l-13.52-7.82a5.998 5.998 0 0 0-6.02 0l-13.55 7.83v-47.9zm-53.89 0h41.87v58.31c0 2.15 1.15 4.13 3.01 5.21a6.027 6.027 0 0 0 6.01 0l19.56-11.3 19.53 11.3c.93.54 1.97.81 3.01.81s2.07-.27 3-.8a6.014 6.014 0 0 0 3.01-5.21V43.32h41.87c3.06 0 5.56 2.49 5.56 5.56v100.46h-64.4c-4.43 0-8.47 1.66-11.57 4.38-3.09-2.71-7.14-4.38-11.57-4.38h-64.43V48.87c0-3.06 2.49-5.56 5.56-5.56zm-17.58 43.89v62.13h-64.42c-9.69 0-17.58 7.88-17.58 17.57v41.49l-63.98-36.93L168 87.2zM92 225.75l151.99 87.74-69.99 40.4-151.98-87.74 69.99-40.4zm6.01 98.15L171 366.04c.93.54 1.97.8 3 .8s2.08-.27 3-.8l72.99-42.14v140.39L98 376.55V323.9zm315.98 52.65-151.96 87.74V323.9l72.96 42.13c.93.54 1.97.81 3 .81s2.08-.27 3-.8l72.99-42.14v52.65zm-76-22.66-69.96-40.4L420 225.75l69.98 40.4z" fill="#6d6c80" opacity="1" data-original="#000000" class=""></path></g></svg>