<svg xmlns="http://www.w3.org/2000/svg" version="1.1" xmlns:xlink="http://www.w3.org/1999/xlink" width="18" height="18" x="0" y="0" viewBox="0 0 64 64" style="enable-background:new 0 0 18 18" xml:space="preserve" class=""><g><g data-name="Layer 28"><path d="M59 12H5a1 1 0 0 0-1 1v14a1 1 0 0 0 1 1h11v19a1 1 0 0 0 1 1h2v3a1 1 0 0 0 1 1h27a1 1 0 0 0 1-1V28h11a1 1 0 0 0 1-1V13a1 1 0 0 0-1-1ZM42 39.07A8 8 0 0 0 35.07 46H24.93A8 8 0 0 0 18 39.07V18h24Zm0 2V46h-4.91A6 6 0 0 1 42 41.09ZM16 22h-2v-4h2Zm2 19.09A6 6 0 0 1 22.91 46H18ZM46 50H21v-2h22a1 1 0 0 0 1-1V18h2Zm4-32v4h-2v-4Zm8 8H48v-2h3a1 1 0 0 0 1-1v-6a1 1 0 0 0-1-1H13a1 1 0 0 0-1 1v6a1 1 0 0 0 1 1h3v2H6V14h52Z" fill="#6d6c80" opacity="1" data-original="#000000" class=""></path><path d="M30 36a8 8 0 1 0-8-8 8 8 0 0 0 8 8Zm0-14a6 6 0 1 1-6 6 6 6 0 0 1 6-6Z" fill="#6d6c80" opacity="1" data-original="#000000" class=""></path></g></g></svg>