<svg xmlns="http://www.w3.org/2000/svg" version="1.1" xmlns:xlink="http://www.w3.org/1999/xlink" width="18" height="18" x="0" y="0" viewBox="0 0 511.975 511.975" style="enable-background:new 0 0 18 18" xml:space="preserve" class=""><g><path d="M211.711 403.625c-3.645-8.356-10.324-14.792-18.81-18.124-8.485-3.332-17.761-3.159-26.115.485-8.355 3.644-14.792 10.324-18.124 18.809-3.331 8.485-3.159 17.76.481 26.108l.091.21c3.645 8.356 10.324 14.792 18.811 18.124a34.091 34.091 0 0 0 12.481 2.379c4.633 0 9.26-.957 13.634-2.864 8.355-3.644 14.792-10.324 18.123-18.809 3.332-8.485 3.159-17.76-.481-26.108zm-13.39 20.835a19.001 19.001 0 0 1-10.157 10.542 19.008 19.008 0 0 1-14.638.271 19.01 19.01 0 0 1-10.63-10.36 18.992 18.992 0 0 1-.271-14.637 19.001 19.001 0 0 1 10.157-10.542 18.997 18.997 0 0 1 14.637-.271 18.997 18.997 0 0 1 10.539 10.15c2.124 4.729 2.261 10.022.363 14.847zM491.828 172.134a7.5 7.5 0 0 0-12.124 8.833c14.595 20.03 20.323 45.323 15.716 69.393-7.577 39.584-40.868 69.415-80.957 72.543-6.739.526-12.48 5.373-14.292 12.078l-2.919 10.907a19.019 19.019 0 0 1-8.915 11.62 18.994 18.994 0 0 1-14.514 1.907 18.986 18.986 0 0 1-11.614-8.909 18.997 18.997 0 0 1-1.908-14.517l2.92-10.917c5.981-22.315 25.376-38.512 48.26-40.304 22.952-1.792 42.017-18.893 46.362-41.589 4.757-24.888-9.751-49.797-33.742-57.939-13.521-4.597-28.192-3.132-40.429 3.253.692-6.696.824-13.513.323-20.396a115.017 115.017 0 0 0-3.159-19.632c18.121-5.692 37.607-5.548 55.571.548a88.347 88.347 0 0 1 19.973 9.733 7.495 7.495 0 0 0 10.383-2.167 7.5 7.5 0 0 0-2.168-10.383 103.309 103.309 0 0 0-23.367-11.387c-21.015-7.133-43.805-7.293-64.979-.621-16.15-40.875-54.888-70.588-100.548-73.578-57.464-3.772-109.029 35.516-121.345 90.772-26.086-14.16-57.154-16.74-85.182-6.647-51.299 18.482-80.005 73.998-65.355 126.37a103.997 103.997 0 0 0 4.884 13.735c3.645 8.356 10.324 14.792 18.809 18.123 8.484 3.331 17.757 3.158 26.114-.487 8.355-3.645 14.791-10.326 18.122-18.813s3.158-17.76-.485-26.108a37.604 37.604 0 0 1-1.712-4.802c-5.071-18.145 4.924-37.381 22.76-43.796 16.836-6.069 35.81 1.297 44.137 17.133 7.611 14.485 4.614 32.364-7.289 43.48-21.419 20.005-27.892 51.581-16.106 78.567l4.512 10.352c5.592 12.821 18.165 20.485 31.34 20.484 4.543 0 9.159-.912 13.583-2.838 8.354-3.645 14.791-10.326 18.122-18.813s3.158-17.76-.484-26.105l-4.512-10.364c-.246-.564-.129-1.147.137-1.394a104.071 104.071 0 0 0 8.788-9.294 7.5 7.5 0 1 0-11.519-9.608 88.601 88.601 0 0 1-7.503 7.936c-4.958 4.619-6.426 11.995-3.654 18.351l4.513 10.367a18.978 18.978 0 0 1 .272 14.63 19.004 19.004 0 0 1-10.152 10.543c-9.668 4.21-20.965-.227-25.181-9.89l-4.513-10.355c-9.247-21.176-4.185-45.934 12.597-61.607 16.827-15.715 21.074-40.971 10.328-61.422-11.792-22.428-38.664-32.86-62.496-24.267-25.189 9.06-39.3 36.27-32.12 61.963a52.876 52.876 0 0 0 2.404 6.745 18.981 18.981 0 0 1 .272 14.631 18.999 18.999 0 0 1-10.157 10.544c-4.683 2.043-9.88 2.14-14.635.273s-8.499-5.474-10.54-10.155a89.096 89.096 0 0 1-4.184-11.764c-12.548-44.86 12.046-92.402 55.988-108.233 25.715-9.26 54.437-6.046 77.704 8.493-.25 3.123-.391 6.26-.391 9.385 0 20.62 16.776 37.396 37.396 37.396l.105-.003c6.403 18.83 6.387 39.329-.174 58.312a7.5 7.5 0 0 0 14.178 4.899c7.452-21.562 7.663-44.807.769-66.305 13.236-5.764 22.517-18.966 22.517-34.3 0-1.966.136-3.932.402-5.846 2.989-21.418 22.342-37.07 44.049-35.637 20.505 1.343 37.093 17.805 38.586 38.293 1.367 18.739-9.989 36.18-27.616 42.413-30.647 10.835-51.239 40.073-51.239 72.754v12.681c0 20.62 16.775 37.396 37.395 37.396s37.396-16.776 37.396-37.396v-12.681c0-1.032.567-1.953 1.379-2.24 35.179-12.439 61.422-40.781 72.199-74.976 9.391-12.038 25.811-16.992 40.365-12.044 16.947 5.751 27.193 23.343 23.834 40.917-3.078 16.074-16.564 28.186-32.8 29.453-29.209 2.287-53.955 22.933-61.579 51.379l-2.92 10.915c-2.361 8.804-1.152 18.002 3.406 25.898 4.56 7.898 11.922 13.545 20.725 15.899a33.904 33.904 0 0 0 25.896-3.406c7.894-4.558 13.541-11.918 15.903-20.729l2.915-10.893c.169-.625.628-.992.973-1.019 46.81-3.652 85.679-38.472 94.523-84.677 5.383-28.131-1.296-57.672-18.327-81.044zM301.714 272.32c-6.806 2.406-11.379 8.99-11.379 16.382v12.681c0 12.349-10.047 22.396-22.396 22.396s-22.395-10.047-22.395-22.396v-12.681c0-26.337 16.572-49.891 41.239-58.612 23.982-8.48 39.435-32.185 37.577-57.646-2.034-27.913-24.633-50.341-52.562-52.17a56.667 56.667 0 0 0-3.743-.124c-27.964 0-52.249 20.732-56.145 48.655a57.426 57.426 0 0 0-.547 7.92c0 12.349-10.047 22.396-22.396 22.396-12.35 0-22.396-10.047-22.396-22.396 0-4.713.329-9.46.978-14.109 7.295-52.272 54.365-90.498 107.172-87.038 50.117 3.282 90.663 43.526 94.314 93.61 3.317 45.533-24.365 87.943-67.321 103.132zM367.158 384.292c-8.805-2.359-18.001-1.149-25.896 3.409s-13.542 11.917-15.896 20.704l-.062.231c-4.87 18.177 5.955 36.927 24.131 41.797a34.043 34.043 0 0 0 8.824 1.167c15.066 0 28.894-10.072 32.978-25.313l.053-.198c2.36-8.805 1.149-18.002-3.408-25.897-4.56-7.893-11.919-13.54-20.724-15.9zm9.639 37.931-.053.198c-2.73 10.188-13.24 16.254-23.427 13.525-10.188-2.73-16.255-13.239-13.53-23.408 1.285-5.025 4.479-9.254 8.975-11.845a19 19 0 0 1 14.514-1.911 19 19 0 0 1 11.614 8.912c2.554 4.424 3.233 9.579 1.907 14.529z" fill="#6d6c80" opacity="1" data-original="#000000" class=""></path><path d="M267.939 352.694c-20.62 0-37.395 16.776-37.395 37.396v.248c0 20.62 16.775 37.396 37.395 37.396s37.396-16.776 37.396-37.396v-.248c0-20.621-16.776-37.396-37.396-37.396zm22.396 37.643c0 12.349-10.047 22.396-22.396 22.396s-22.395-10.047-22.395-22.396v-.248c0-12.349 10.047-22.396 22.395-22.396 12.349 0 22.396 10.047 22.396 22.396z" fill="#6d6c80" opacity="1" data-original="#000000" class=""></path></g></svg>