<svg xmlns="http://www.w3.org/2000/svg" version="1.1" xmlns:xlink="http://www.w3.org/1999/xlink" width="18" height="18" x="0" y="0" viewBox="0 0 512 512" style="enable-background:new 0 0 18 18" xml:space="preserve" class=""><g><linearGradient id="a" x1="256" x2="256" y1="500.992" y2="11.008" gradientUnits="userSpaceOnUse"><stop stop-opacity="1" stop-color="#6d6c80" offset="0"></stop><stop stop-opacity="1" stop-color="#6d6c80" offset="0.28"></stop><stop stop-opacity="1" stop-color="#6d6c80" offset="0.819"></stop><stop stop-opacity="1" stop-color="#6d6c80" offset="1"></stop></linearGradient><path fill="url(#a)" fill-rule="evenodd" d="M138.66 198.22c0-9.38 7.62-17 17-17H297.4c9.38 0 17 7.62 17 17v91.66c0 9.38-7.63 17-17 17H155.67c-9.38 0-17-7.62-17-17v-91.66zm117.32 268.87c122.98 0 223.05-100.06 223.05-223.04S378.95 21.01 255.98 21.01C133 21.01 32.92 121.06 32.92 244.05c0 43.04 12.32 84.8 35.55 120.8 4.37 6.81 4.99 14.73 1.93 24.21L39.27 484c-.61 1.95-.14 3.97 1.27 5.42 1.46 1.44 3.48 1.94 5.41 1.32l116.82-37.21c5.93-1.88 11.47-1.81 16.98.2 24.4 8.86 50.08 13.36 76.23 13.36zM420.76 79.26C376.74 35.24 318.24 11 255.97 11 193.75 11 135.2 35.24 91.18 79.26 47.17 123.28 22.95 181.8 22.95 244.05c0 44.96 12.84 88.61 37.11 126.22 2.68 4.17 2.96 9.15.8 15.67l-31.09 94.93c-1.79 5.51-.38 11.47 3.67 15.58 2.96 2.95 6.87 4.54 10.86 4.54 1.55 0 3.15-.24 4.7-.73l116.82-37.2c3.76-1.2 7.1-1.18 10.53.06 25.49 9.28 52.29 13.98 79.62 13.98 62.27 0 120.77-24.24 164.79-68.25 44.02-44.02 68.28-102.54 68.28-164.79.01-62.26-24.26-120.78-68.28-164.8zM320.38 222.69l42.43-24.49c2.21-1.27 4.78-1.28 6.98-.01 2.21 1.27 3.5 3.53 3.5 6.08v79.57c0 2.55-1.29 4.8-3.49 6.07s-4.78 1.27-6.99-.01l-42.43-24.49z" clip-rule="evenodd" opacity="1" data-original="url(#a)"></path></g></svg>